<?xml version="1.0" encoding="utf-8" ?>
<svg baseProfile="full" height="200mm" version="1.1" viewBox="0,0,200,200" width="200mm" xmlns="http://www.w3.org/2000/svg" xmlns:ev="http://www.w3.org/2001/xml-events" xmlns:xlink="http://www.w3.org/1999/xlink"><defs /><rect fill="#1a1a1a" height="200" width="200" x="0" y="0" /><text alignment-baseline="middle" fill="#e1ed5e" style="dominant-baseline: central; font-size:9.0px; font-family:Arial;" text-anchor="middle" x="100.0" y="100.0">2022</text><line stroke="#e1ed5e" stroke-width="0.3" x1="100.0" x2="100.0" y1="15.0" y2="10.0" /><path d="M 100.0 14.0 a86.0,86.0 0 0,1 42.46469731375804,11.215312516191453" fill="none" id="id1" stroke="none" /><text fill="#e1ed5e" style="font-size:6.75px; font-family:Arial;" text-anchor="middle"><textPath startOffset="22.20632615414155" xlink:href="#id1">January</textPath></text><line stroke="#e1ed5e" stroke-width="0.3" x1="143.23703022742887" x2="145.7803849466894" y1="26.81831364943548" y2="22.513508569990506" /><path d="M 143.74570117128098 25.957352633546492 a86.0,86.0 0 0,1 28.547481713284135,27.462654790039103" fill="none" id="id2" stroke="none" /><text fill="#e1ed5e" style="font-size:6.75px; font-family:Arial;" text-anchor="middle"><textPath startOffset="19.985693538727396" xlink:href="#id2">February</textPath></text><line stroke="#e1ed5e" stroke-width="0.3" x1="172.23445277983987" x2="176.4835382374775" y1="55.19839476539836" y2="52.563006222186495" /><path d="M 173.08426987136738 54.67131705675599 a86.0,86.0 0 0,1 12.851231095245387,41.99856678651699" fill="none" id="id3" stroke="none" /><text fill="#e1ed5e" style="font-size:6.75px; font-family:Arial;" text-anchor="middle"><textPath startOffset="22.20632615414155" xlink:href="#id3">March</textPath></text><path d="M 120.87857604477298 97.74499172005257 l 8.990933385192635 -0.9710733713155201 a30.043222137570744,30.043222137570744 0 0,0 0.05110620231053928,0.5146324828269717 l -9.006316713185402 0.8161653577841134" fill="#ff3304" stroke="none" /><path d="M 120.98425023603335 99.18683210126433 l 13.589060612146108 -0.5265943619370076 a34.5992599042229,34.5992599042229 0 0,0 0.017939395878367983,0.5953212133522381 l -13.59611170248012 0.2926030011597704" fill="#ff770b" stroke="none" /><line stroke="#e1ed5e" stroke-width="0.3" x1="184.98032266829074" x2="189.97916517819016" y1="98.17113171792111" y2="98.06355123074" /><path d="M 185.9800911702706 98.14961562048488 a86.0,86.0 0 0,1 -9.607161424134198,41.387399972396054" fill="none" id="id4" stroke="none" /><text fill="#e1ed5e" style="font-size:6.75px; font-family:Arial;" text-anchor="middle"><textPath startOffset="21.466115282336823" xlink:href="#id4">April</textPath></text><path d="M 120.99824983174949 100.27111621757518 l 15.325602806974656 0.19787456089812744 a36.326880169786676,36.326880169786676 0 0,0 -0.01345467603856412,0.6251859263777632 l -15.319926068251084 -0.46165030306600546" fill="#ff900d" stroke="none" /><path d="M 120.89721153311464 102.0752229133903 l 12.336359964694585 1.2250771748181308 a33.3970396168916,33.3970396168916 0 0,0 -0.061733153076472556,0.5715723274509608 l -12.31344451011706 -1.437245824153883" fill="#ff6609" stroke="none" /><path d="M 120.81339534386255 102.79330883721812 l 14.200192684743184 1.9057690041038746 a35.327505986068786,35.327505986068786 0 0,0 -0.0860745413806622,0.6020051419406623 l -14.165284092345921 -2.149919618024946" fill="#ff820c" stroke="none" /><path d="M 120.64145759157962 103.86396538481128 l 16.110131953550013 3.015726575368056 a37.38996517196343,37.38996517196343 0 0,0 -0.12386773252624192,0.6315988995315073 l -16.055834288048107 -3.2925892019675085" fill="#ffa00e" stroke="none" /><path d="M 120.41448212921028 104.9243191809786 l 13.919141827242488 3.357532983145197 a35.318363626469306,35.318363626469306 0 0,0 -0.14764536781032708,0.5897698515163055 l -13.8592851451371 -3.5966306740588987" fill="#ff820b" stroke="none" /><path d="M 120.23288151984713 105.62410040840565 l 14.523665754675855 4.037119202338754 a36.07432248585111,36.07432248585111 0 0,0 -0.17145157159206148,0.5968454130450445 l -14.452021546197694 -4.286522090888381" fill="#ff8d0d" stroke="none" /><path d="M 120.13307415673323 105.97154293290107 l 11.060536399693135 3.2805952760867205 a32.53680071832825,32.53680071832825 0 0,0 -0.16388202020487425,0.5355759241797585 l -11.002427606982128 -3.470498172818536" fill="#ff5908" stroke="none" /><path d="M 119.9155931802556 106.66101706037122 l 14.106788187445693 4.71819021071272 a35.87490476708751,35.87490476708751 0 0,0 -0.20091513045942336,0.5839534154029664 l -14.023482226043038 -4.960316329204987" fill="#ff8a0c" stroke="none" /><path d="M 119.67450827220406 107.3425965602758 l 19.666745963487614 7.339699639016433 a41.99171473661298,41.99171473661298 0 0,0 -0.25856042500579524,0.6750196801593294 l -19.537491258888313 -7.677142886008907" fill="#ffdf14" stroke="none" /><path d="M 119.26925614724726 108.34839909993367 l 16.846442894732316 7.2987160285146055 a39.35957226817588,39.35957226817588 0 0,0 -0.274690296050711,0.6193541014740475 l -16.71831151395033 -7.587618466481341" fill="#ffbb11" stroke="none" /><path d="M 118.97047184881838 109.00673069616215 l 17.24309146021175 8.1866114026623 a40.08781835002177,40.08781835002177 0 0,0 -0.301320551236754,0.6208095837469033 l -17.099617652360283 -8.482209942374478" fill="#ffc512" stroke="none" /><path d="M 118.81262510543309 109.33194174019688 l 11.13288483396997 5.522431456996679 a33.42732368306487,33.42732368306487 0 0,0 -0.2601303667510197,0.5132618921740499 l -11.036175797432682 -5.713247560873423" fill="#ff6609" stroke="none" /><line stroke="#e1ed5e" stroke-width="0.3" x1="174.80103733775053" x2="179.2010983576182" y1="140.37084112569926" y2="142.7455964860345" /><path d="M 175.68104954172406 140.8457921977663 a86.0,86.0 0 0,1 -30.038265399797805,32.042727171017184" fill="none" id="id5" stroke="none" /><text fill="#e1ed5e" style="font-size:6.75px; font-family:Arial;" text-anchor="middle"><textPath startOffset="22.206326154141568" xlink:href="#id5">May</textPath></text><path d="M 118.30583269289576 110.29060199501023 l 20.087254401269224 11.292026081730805 a44.04360306922072,44.04360306922072 0 0,0 -0.37719781401219876,0.6576761828286415 l -19.889904591104646 -11.63612211041776" fill="#fffb17" stroke="none" /><path d="M 117.94076556474637 110.91462005526583 l 12.210528391755092 7.428516781464727 a35.29265074009577,35.29265074009577 0 0,0 -0.3202141869446135,0.5162872277715008 l -12.080849565142515 -7.637600340601501" fill="#ff810b" stroke="none" /><path d="M 117.55443506779139 111.5257021239791 l 16.89408987620394 11.092139782163654 a41.21004299085764,41.21004299085764 0 0,0 -0.39443288890728884,0.5896236515592593 l -16.700653881885927 -11.381300347928722" fill="#ffd513" stroke="none" /><path d="M 117.14729908036423 112.12312394758627 l 12.197248209850407 8.623442745966864 a35.937758489333916,35.937758489333916 0 0,0 -0.36146575284155014,0.5020443160087569 l -12.047002664633254 -8.832120667426752" fill="#ff8b0c" stroke="none" /><path d="M 116.71984013943494 112.70617746262583 l 22.299186010952948 16.946179650306583 a49.007618632999566,49.007618632999566 0 0,0 -0.5161976736188699,0.6672550772990462 l -22.00418152011601 -17.327512721718882" fill="#c4ff1e" stroke="none" /><path d="M 116.0416608686014 113.55231037782055 l 7.776181138565744 6.569470655639477 a31.179731715280802,31.179731715280802 0 0,0 -0.3498922537275904,0.40700373834086095 l -7.661946375267373 -6.702351493141866" fill="#ff4406" stroke="none" /><path d="M 115.56566222782051 114.09645910891815 l 13.691954954859098 12.399606281919521 a39.47213757074445,39.47213757074445 0 0,0 -0.4604210420019418,0.4996961068329286 l -13.476487504861431 -12.633453643553784" fill="#ffbd11" stroke="none" /><path d="M 115.07121518719521 114.62390073753431 l 13.6388100215206 13.234009431586136 a40.004108619939046,40.004108619939046 0 0,0 -0.4837818295395324,0.4900684391575883 l -13.408987566925532 -13.46681836472439" fill="#ffc412" stroke="none" /><path d="M 114.29624159901734 115.38237550388516 l 15.770911056512844 16.969080595723117 a44.16616782760122,44.16616782760122 0 0,0 -0.5613319091194697,0.5127633899295295 l -15.47647959792651 -17.23803675223923" fill="#fffc17" stroke="none" /><path d="M 113.20401910651253 116.32954008644616 l 12.551398821712247 15.52243817180126 a40.96205648672181,40.96205648672181 0 0,0 -0.5520953891169159,0.4386179674509559 l -12.282345939877981 -15.736190053257342" fill="#ffd113" stroke="none" /><path d="M 112.63410532772338 116.77436683061366 l 14.174179116039674 18.81913074553392 a44.55986068785372,44.55986068785372 0 0,0 -0.6166554872354887,0.4561869873062106 l -13.848138658385622 -19.060327681579896" fill="#fcff18" stroke="none" /><path d="M 112.04921762599082 117.19931262002967 l 16.677176812116382 23.805361187300544 a50.0658467566391,50.0658467566391 0 0,0 -0.7100841796186049,0.48840237363491656 l -16.264935747874894 -24.088904350300552" fill="#b7ff1f" stroke="none" /><path d="M 111.45004920935366 117.60387380957326 l 12.474422353682003 19.178795911387503 a43.878754897692644,43.878754897692644 0 0,0 -0.636697862897587,0.4063707004179928 l -12.142442688737486 -19.390681040629303" fill="#fff917" stroke="none" /><path d="M 111.1453310114006 117.79835938074945 l 6.085474461410965 9.718101809248454 a32.46623313016978,32.46623313016978 0 0,0 -0.4762035763780515,0.29252313080317754 l -5.917291685100605 -9.82141340688001" fill="#ff5808" stroke="none" /><line stroke="#e1ed5e" stroke-width="0.3" x1="143.8653032363475" x2="146.44561519142675" y1="172.8068346515853" y2="177.08958963109032" /><path d="M 144.38136562736335 173.6633856474863 a86.0,86.0 0 0,1 -40.68145358897372,12.25698825130547" fill="none" id="id6" stroke="none" /><text fill="#e1ed5e" style="font-size:6.75px; font-family:Arial;" text-anchor="middle"><textPath startOffset="21.466115282336833" xlink:href="#id6">June</textPath></text><path d="M 110.5260780823613 118.17145234162733 l 15.778090403739725 27.238142788802747 a52.47800119721376,52.47800119721376 0 0,0 -0.7855487802788094,0.44605509900611207 l -15.306892856539717 -27.505701053603488" fill="#99ff23" stroke="none" /><path d="M 109.89434966115114 118.52300852407294 l 13.794261208588978 25.823952730639114 a50.277263822377016,50.277263822377016 0 0,0 -0.766869761827755,0.40119001488502315 l -13.347700544234728 -26.057572164468855" fill="#b4ff20" stroke="none" /><path d="M 109.57404056367764 118.69057910512821 l 7.231198437822313 14.11684915350733 a36.86113680888115,36.86113680888115 0 0,0 -0.5672158246743383,0.2844137896990767 l -6.987128705465214 -14.239230784115708" fill="#ff980e" stroke="none" /><path d="M 109.2508944713604 118.85261126421891 l 6.1528315318331925 12.53899732647385 a34.96723987810187,34.96723987810187 0 0,0 -0.5426371672033565,0.2604988162639563 l -5.9360816966296035 -12.643050419237367" fill="#ff7d0b" stroke="none" /><path d="M 108.92500713936063 119.00905698771935 l 8.115364839550322 17.284628494112024 a40.09496081845886,40.09496081845886 0 0,0 -0.627260849395956,0.28794469075582285 l -7.816635994386947 -17.42176025520192" fill="#ffc512" stroke="none" /><path d="M 108.59647513512805 119.15986991738527 l 8.486539803349908 18.914845459908918 a41.73144318676535,41.73144318676535 0 0,0 -0.6579246693253594,0.2884148404084895 l -8.159694459366795 -19.05812485361186" fill="#ffdc14" stroke="none" /><path d="M 108.2653958097858 119.30500536409082 l 5.308569204181783 12.398917041703351 a34.48755169786678,34.48755169786678 0 0,0 -0.5477420372997792,0.22895621601450228 l -5.094355707384542 -12.488458300737827" fill="#ff760a" stroke="none" /><path d="M 107.93186726928326 119.44442032107085 l 6.987109188871654 17.12841166969167 a39.49870755333043,39.49870755333043 0 0,0 -0.6317515900356969,0.25138699554211685 l -6.691236522794091 -17.246145509639852" fill="#ffbd11" stroke="none" /><path d="M 107.59598834532513 119.57807347666477 l 8.332397424406361 21.4761110201279 a44.03588920330866,44.03588920330866 0 0,0 -0.709040261663798,0.26809835679778726 l -7.961486941982288 -21.616357627032315" fill="#fffb17" stroke="none" /><path d="M 107.2578585660854 119.70592522655815 l 10.457264493086646 28.39268226278661 a51.25721049194602,51.25721049194602 0 0,0 -0.8305631479568362,0.2978103948359376 l -9.966981784500074 -28.56848019866251" fill="#a8ff21" stroke="none" /><path d="M 106.91757812671514 119.82793768551818 l 10.045376736877545 28.79318459695425 a51.49519754026991,51.49519754026991 0 0,0 -0.8394459393528977,0.2847856395913366 l -9.54826106458742 -28.961833223443712" fill="#a5ff21" stroke="none" /><path d="M 106.57524785965236 119.94407469862006 l 3.6958038381793843 11.210130689125597 a32.803643339138006,32.803643339138006 0 0,0 -0.537790200234046,0.17218343926016477 l -3.502292292854398 -11.272086975045468" fill="#ff5d08" stroke="none" /><path d="M 106.2309692047433 120.05430185196036 l 3.610968045473043 11.621858619775184 a33.169909120592074,33.169909120592074 0 0,0 -0.546711221056174,0.16471960616369385 l -3.410381849976623 -11.682293595044603" fill="#ff6209" stroke="none" /><path d="M 105.88484417918355 120.15858648285463 l 10.447952227623997 35.789554002857614 a58.283399542882016,58.283399542882016 0 0,0 -0.9654751484702344,0.27285292082828283 l -9.830345911049156 -35.96409571702442" fill="#57ff2a" stroke="none" /><path d="M 105.53697534728816 120.25689768951611 l 6.399114589366315 23.41101439141685 a45.26982205050065,45.26982205050065 0 0,0 -0.7534397837558472,0.19899029479755126 l -5.9951843627989705 -23.517696035517982" fill="#f3ff19" stroke="none" /><path d="M 105.18746579009965 120.34920634021253 l 4.321312007422615 16.95148908110515 a38.49361939486286,38.49361939486286 0 0,0 -0.6434789831862681,0.1581514783013057 l -4.028879739493136 -17.023361817720488" fill="#ffaf10" stroke="none" /><path d="M 104.48393922423573 120.51570834832081 l 5.7095435852789365 26.1233092465864 a47.7399733347845,47.7399733347845 0 0,0 -0.8043242950943127,0.16855397633565106 l -5.259027828755245 -26.21771920364859" fill="#d4ff1c" stroke="none" /><path d="M 104.13013068566511 120.58985236759428 l 5.250880395290108 26.17710197746632 a47.698547017849364,47.698547017849364 0 0,0 -0.8064061394862274,0.1545496558953234 l -4.799506641232176 -26.263608831710112" fill="#d4ff1c" stroke="none" /><path d="M 103.7750983002368 120.6578951692458 l 2.589936018234952 14.172512211508593 a35.407215933826734,35.407215933826734 0 0,0 -0.6004912558163625,0.10440310196363005 l -2.3455957909465397 -14.21499389199323" fill="#ff830c" stroke="none" /><path d="M 103.41894727170886 120.7198165907248 l 3.635143219125365 22.030027021635888 a43.32792773182412,43.32792773182412 0 0,0 -0.7369134233318829,0.11509072133444884 l -3.255393932184965 -22.089336050317446" fill="#fff116" stroke="none" /><path d="M 103.06178313531738 120.77559828337769 l 3.524857840303818 23.91777185374543 a45.17611286460601,45.17611286460601 0 0,0 -0.7702987799110584,0.10675639191720476 l -3.112630469205929 -23.974902811155236" fill="#f4ff19" stroke="none" /><path d="M 102.70371172650421 120.8252237178851 l 4.611876581806399 35.52278174995147 a56.82090770570309,56.82090770570309 0 0,0 -0.97102217013835,0.11757726198556959 l -3.9997269886166693 -35.596904540662386" fill="#67ff28" stroke="none" /><path d="M 102.34483914955558 120.86867818915974 l 0.6445883197638251 5.736728769729016 a26.772828689595123,26.772828689595123 0 0,0 -0.45841126159241635,0.04751620159461906 l -0.5457444615658061 -5.746974339779394" fill="#ff0000" stroke="none" /><path d="M 101.98527174616119 120.90594882070398 l 2.368394837684053 24.940435161878415 a46.05263659120592,46.05263659120592 0 0,0 -0.789815178633648,0.06814857698146234 l -1.9387353413088633 -24.97750799113854" fill="#e9ff1a" stroke="none" /><path d="M 101.62511606390274 120.93702456842531 l 2.008887894513633 25.88131157945501 a46.95915868524162,46.95915868524162 0 0,0 -0.8064391116376025,0.05561676269640119 l -1.5630860220971001 -25.912056686667697" fill="#ddff1b" stroke="none" /><path d="M 101.26447882468166 120.96189622390904 l 1.6306072370905091 27.031389548537025 a48.08052622986504,48.08052622986504 0 0,0 -0.8265544593304732,0.04272342430591915 l -1.1650647093465563 -27.055452779605147" fill="#cfff1d" stroke="none" /><line stroke="#e1ed5e" stroke-width="0.3" x1="102.19456741930631" x2="102.32365962044197" y1="184.97166512339345" y2="189.96999836594603" /><path d="M 102.22038585953345 185.97133177190398 a86.0,86.0 0 0,1 -42.740103519485714,-10.115201625700543" fill="none" id="id7" stroke="none" /><text fill="#e1ed5e" style="font-size:6.75px; font-family:Arial;" text-anchor="middle"><textPath startOffset="22.20632615414155" xlink:href="#id7">July</textPath></text><path d="M 100.54218724476979 120.99299961872073 l 1.1152885451396957 43.182963503359765 a64.19736340879408,64.19736340879408 0 0,0 -1.104929282787982,0.01902235963948883 l -0.3717995724590456 -43.19576334027842" fill="#32ff4c" stroke="none" /><path d="M 100.18074693466247 120.99922214144158 l 0.17317318957701988 20.11930262419571 a41.12004788855028,41.12004788855028 0 0,0 -0.7078402484789368,0.0 l 0.17317318957700603 -20.11930262419571" fill="#ffd413" stroke="none" /><path d="M 99.81925306533755 120.99922214144158 l -0.19269525523717662 22.38738088634342 a43.38821016543318,43.38821016543318 0 0,0 -0.7467737208188697,-0.012856386836714464 l 0.5780286659487143 -22.380747022227546" fill="#fff216" stroke="none" /><path d="M 99.09653310690486 120.98055641714683 l -1.4668676873213264 34.06400445388986 a55.09557303003918,55.09557303003918 0 0,0 -0.9471504400685776,-0.04895685901370233 l 2.053006195803393 -34.03370778811395" fill="#7bff26" stroke="none" /><path d="M 98.73552117531835 120.96189622390904 l -1.2065568040745642 20.001693995650683 a41.03805235089247,41.03805235089247 0 0,0 -0.7047547572778857,-0.04860401427590721 l 1.5506743221313801 -19.977961636858492" fill="#ffd213" stroke="none" /><path d="M 98.37488393609728 120.93702456842531 l -1.554852964600873 20.031796770231267 a41.092049412276886,41.092049412276886 0 0,0 -0.704739766260803,-0.06080791242326733 l 1.8994370486032177 -20.002064605529338" fill="#ffd313" stroke="none" /><path d="M 97.65516085044442 120.86867818915974 l -1.746283738107072 15.541634642370397 a36.63943458859382,36.63943458859382 0 0,0 -0.626137538511844,-0.07581653608807236 l 2.0135486996703054 -15.509272577556976" fill="#ff950d" stroke="none" /><path d="M 97.2962882734958 120.8252237178851 l -3.134442901914567 24.142912139419074 a45.34553221593382,45.34553221593382 0 0,0 -0.773187552568684,-0.10715674948499039 l 3.549559045670082 -24.08538082444148" fill="#f2ff19" stroke="none" /><path d="M 96.93821686468263 120.77559828337769 l -3.3241240988870837 22.555701651748297 a43.79933064867218,43.79933064867218 0 0,0 -0.7449309574122861,-0.11634289526889154 l 3.7118909199078867 -22.4951404491323" fill="#fff817" stroke="none" /><path d="M 96.58105272829116 120.7198165907248 l -3.2615447144675698 19.76591123396853 a41.033195472355246,41.033195472355246 0 0,0 -0.695905465298464,-0.12099208530826905 l 3.601299151238084 -19.706840570139256" fill="#ffd213" stroke="none" /><path d="M 96.22490169976321 120.6578951692458 l -3.6343230439113037 19.887552185749637 a41.216899760557254,41.216899760557254 0 0,0 -0.6968254400928559,-0.13354825405231754 l 3.9761160985758544 -19.822046733348852" fill="#ffd513" stroke="none" /><path d="M 95.51606077576429 120.51570834832081 l -5.907863219829288 27.030696162133733 a48.66877993034393,48.66877993034393 0 0,0 -0.816893537099013,-0.18592230946671018 l 6.372276906321164 -26.924997119089337" fill="#c8ff1d" stroke="none" /><path d="M 94.81253420990036 120.34920634021253 l -9.271225965656285 36.36883554238381 a58.53195744449281,58.53195744449281 0 0,0 -0.9741656441810208,-0.2572860006819672 l 9.895882052648796 -36.203858192398265" fill="#54ff2b" stroke="none" /><path d="M 94.11515582081647 120.15858648285463 l -6.4152519486531006 21.975503051325894 a43.892754135829335,43.892754135829335 0 0,0 -0.7234466974834254,-0.21796855542800472 l 6.792573620576772 -21.861819126792163" fill="#fff917" stroke="none" /><path d="M 93.76903079525671 120.05430185196036 l -5.944529760048749 19.13239983359708 a41.03462396604266,41.03462396604266 0 0,0 -0.6727307211299156,-0.21538713276982208 l 6.272981826269604 -19.027239854167554" fill="#ffd213" stroke="none" /><path d="M 93.42475214034765 119.94407469862007 l -3.186719494888107 9.665973512511448 a31.177731824118418,31.177731824118418 0 0,0 -0.5082419648458101,-0.17242326901640223 l 3.3526311926711427 -9.609687256596922" fill="#ff4406" stroke="none" /><path d="M 92.7421414339146 119.70592522655815 l -9.368644952774662 25.43695433474456 a48.10738191118851,48.10738191118851 0 0,0 -0.7745970678776632,-0.29288633143495 l 9.80511224141261 -25.271919753202976" fill="#cfff1d" stroke="none" /><path d="M 92.06813273071674 119.44442032107085 l -7.99218934432039 19.592295687846516 a42.159705594253374,42.159705594253374 0 0,0 -0.6695935749937144,-0.27989016865302047 l 8.328254378811566 -19.45182047617352" fill="#ffe215" stroke="none" /><path d="M 91.7346041902142 119.30500536409082 l -8.86924288611565 20.7153759399121 a43.53420222028733,43.53420222028733 0 0,0 -0.6863463952574335,-0.30087408981957386 l 9.224509956030825 -20.559637296798076" fill="#fff417" stroke="none" /><path d="M 91.40352486487194 119.15986991738527 l -9.929967319100763 22.131964453710196 a45.25753700478886,45.25753700478886 0 0,0 -0.7080261589911173,-0.3250200831026785 l 10.309461473859301 -21.957757300273443" fill="#f3ff19" stroke="none" /><path d="M 90.7491055286396 118.85261126421891 l -16.858239871901567 34.35579595982339 a59.269060187200694,59.269060187200694 0 0,0 -0.9120269140385324,-0.4573092280670787 l 17.44712069362286 -34.060518890847014" fill="#4cff2c" stroke="none" /><path d="M 90.10565033884886 118.52300852407294 l -5.420866282164472 10.148292287126427 a32.50537385720505,32.50537385720505 0 0,0 -0.49126019780754004,-0.2678742292396692 l 5.594749291840652 -10.053477406126992" fill="#ff5808" stroke="none" /><line stroke="#e1ed5e" stroke-width="0.3" x1="58.666819895761336" x2="56.23545636021788" y1="174.27360380694188" y2="178.64263932499728" /><path d="M 58.180547188652646 175.14741091055294 a86.0,86.0 0 0,1 -31.652253787137756,-30.449443065178592" fill="none" id="id8" stroke="none" /><text fill="#e1ed5e" style="font-size:6.75px; font-family:Arial;" text-anchor="middle"><textPath startOffset="22.20632615414155" xlink:href="#id8">August</textPath></text><path d="M 89.4739219176387 118.17145234162733 l -10.889673427527747 18.799136787309088 a42.725389094471055,42.725389094471055 0 0,0 -0.633214943286332,-0.3741145498093525 l 11.211656241842462 -18.608903665205986" fill="#ffe915" stroke="none" /><path d="M 89.1626897886671 117.98757091392108 l -10.342949344732459 17.167039714607064 a41.04205213321724,41.04205213321724 0 0,0 -0.6019907492615938,-0.369791886125508 l 10.636919293926361 -16.986459361653175" fill="#ffd213" stroke="none" /><path d="M 88.8546689885994 117.79835938074946 l -10.49211368993355 16.755214351740577 a40.76920983892033,40.76920983892033 0 0,0 -0.591577150194602,-0.37757252675831443 l 10.778972642175075 -16.57212739615846" fill="#ffcf13" stroke="none" /><path d="M 88.54995079064634 117.60387380957326 l -10.908577030265278 16.771387613419627 a41.00691118850675,41.00691118850675 0 0,0 -0.5884009460771632,-0.3899600625370168 l 11.195652675082403 -16.58112952979129" fill="#ffd213" stroke="none" /><path d="M 87.95078237400918 117.19931262002967 l -24.277606383691587 34.654377970437196 a63.31226872006966,63.31226872006966 0 0,0 -0.8871938331525895,-0.6329892434971129 l 24.87052754469306 -34.23134446509586" fill="#31ff41" stroke="none" /><path d="M 87.36589467227662 116.77436683061367 l -16.104599731729444 21.38216015719345 a47.76854320853287,47.76854320853287 0 0,0 -0.6525439394402687,-0.5003428668617504 l 16.470272399663198 -21.10177794850433" fill="#d3ff1c" stroke="none" /><path d="M 87.07902340077011 116.55440617244103 l -11.792781836851548 15.108958593877604 a40.16638550282978,40.16638550282978 0 0,0 -0.5413711648191477,-0.4300979950753522 l 12.051110494388054 -14.903726684797121" fill="#ffc612" stroke="none" /><path d="M 86.79598089348748 116.32954008644616 l -12.189790059448832 15.075233064677619 a40.386944928167175,40.386944928167175 0 0,0 -0.5368191783939065,-0.44176563735458235 l 12.447479366387427 -14.863172308465856" fill="#ffc912" stroke="none" /><path d="M 86.24171649860922 115.8653595955263 l -13.748550279497106 15.85413573425388 a41.985143665650845,41.985143665650845 0 0,0 -0.5419235359471525,-0.4781845121042599 l 14.019416168350848 -15.615128080377332" fill="#ffdf14" stroke="none" /><path d="M 85.97065885151581 115.62618273729859 l -13.106699726088504 14.598524822734731 a40.618932303003916,40.618932303003916 0 0,0 -0.5162481586593801,-0.4715804528096405 l 13.35604743421474 -14.370751603338512" fill="#ffcd13" stroke="none" /><path d="M 85.70375840098266 115.38237550388516 l -12.813792297377832 13.787299506788235 a39.822404222899436,39.822404222899436 0 0,0 -0.49809136084569433,-0.47097647097480433 l 13.049219492614341 -13.564688399067501" fill="#ffc212" stroke="none" /><path d="M 85.44109423537348 115.13401014063109 l -12.925426010587627 13.436004839834066 a39.64384251197214,39.64384251197214 0 0,0 -0.48771374290354835,-0.477330547566953 l 13.15478970586697 -13.211524189344543" fill="#ffbf11" stroke="none" /><path d="M 84.9287848128048 114.62390073753433 l -14.907593755444791 14.465135598377925 a41.772012407488035,41.772012407488035 0 0,0 -0.49627825863738884,-0.5203457700869702 l 15.154378565461139 -14.206382711708454" fill="#ffdc14" stroke="none" /><path d="M 84.67929136418377 114.36230785411682 l -14.920307551665669 13.98695422182799 a41.45117272529386,41.45117272529386 0 0,0 -0.483505411992862,-0.5247496312396294 l 15.158859371654263 -13.728053335787019" fill="#ffd814" stroke="none" /><path d="M 84.19399662182784 113.82643327865904 l -30.156858398974794 26.37996339563046 a61.06667664344798,61.06667664344798 0 0,0 -0.6852771317451213,-0.7971321212412754 l 30.606478040290696 -25.856954175227656" fill="#39ff2e" stroke="none" /><path d="M 83.95833913139862 113.55231037782056 l -15.297019122796153 12.923222396089994 a41.0251959077057,41.0251959077057 0 0,0 -0.451089611440027,-0.5433664960205207 l 15.517204734129717 -12.65799464295571" fill="#ffd213" stroke="none" /><path d="M 83.72743513129214 113.27417163493432 l -17.639385932859494 14.389141373643572 a43.763904005224205,43.763904005224205 0 0,0 -0.4711540378157963,-0.5878371054203178 l 17.88445788273015 -14.083376434644995" fill="#fff717" stroke="none" /><path d="M 83.28015986056508 112.70617746262583 l -16.378410012512692 12.446708966062369 a41.57116619503701,41.57116619503701 0 0,0 -0.4280617295249002,-0.5734586395466841 l 16.590233008732678 -12.162937447006378" fill="#ffda14" stroke="none" /><path d="M 83.06392112726016 112.41649034213515 l -20.431633571509106 14.979215839802377 a46.33433554636483,46.33433554636483 0 0,0 -0.46603561782102143,-0.6472827125263861 l 20.686448981705734 -14.62529952182485" fill="#e5ff1a" stroke="none" /><path d="M 82.6465618267979 111.8261652097733 l -21.88090448588571 14.911580564418244 a47.47884468872442,47.47884468872442 0 0,0 -0.45443334957713555,-0.6793161992912667 l 22.134340940873578 -14.532727450921154" fill="#d7ff1c" stroke="none" /><path d="M 82.05923443525364 110.91462005526583 l -29.454693160330017 17.919345945925592 a55.47726654331738,55.47726654331738 0 0,0 -0.4893071775147154,-0.820106974410931 l 29.758781213542964 -17.40967687762855" fill="#76ff27" stroke="none" /><line stroke="#e1ed5e" stroke-width="0.3" x1="26.63291911575756" x2="22.317208475507996" y1="142.92168965132927" y2="145.44649492493687" /><path d="M 25.769776987707644 143.4266507060508 a86.0,86.0 0 0,1 -11.730757126820373,-40.83630448921669" fill="none" id="id9" stroke="none" /><text fill="#e1ed5e" style="font-size:6.75px; font-family:Arial;" text-anchor="middle"><textPath startOffset="21.46611528233685" xlink:href="#id9">September</textPath></text><path d="M 81.87401531095188 110.60418214915194 l -19.75082297153804 11.5547556714196 a43.88246898127993,43.88246898127993 0 0,0 -0.37581783096135335,-0.6552700660603725 l 19.946792798651767 -11.213065759500921" fill="#fff917" stroke="none" /><path d="M 81.69416730710424 110.29060199501025 l -19.955509387466687 11.21796577949746 a43.892468437091864,43.892468437091864 0 0,0 -0.36456580680159734,-0.6617928346417301 l 20.145651603719802 -10.872802426457907" fill="#fff917" stroke="none" /><path d="M 81.51974371655577 109.97397251340807 l -21.605889529468655 11.660906915436382 a45.55180670439704,45.55180670439704 0 0,0 -0.36646968993012846,-0.6932225456392582 l 21.80341172762367 -11.287269354710997" fill="#f0ff19" stroke="none" /><path d="M 81.35079622478065 109.6543875284942 l -23.634993710281872 12.235449366250501 a47.61426589029168,47.61426589029168 0 0,0 -0.3705326985210407,-0.731096166628241 l 23.842105078589178 -11.826798987919574" fill="#d5ff1c" stroke="none" /><path d="M 81.18737489456691 109.33194174019688 l -20.57912405076531 10.208207819469289 a43.97189268611233,43.97189268611233 0 0,0 -0.3305152409995185,-0.680959291839669 l 20.751792548379544 -9.852459571664335" fill="#fffa17" stroke="none" /><path d="M 81.02952815118164 109.00673069616217 l -12.978967931068059 6.162106551742749 a35.367503809316496,35.367503809316496 0 0,0 -0.2563729437520044,-0.5522045128340247 l 13.08311549165989 -5.937781971629898" fill="#ff820c" stroke="none" /><path d="M 80.87730276802145 108.67885076344099 l -19.236906854377846 8.730684887912458 a42.12542174575533,42.12542174575533 0 0,0 -0.29399314839501217,-0.6628769377062673 l 19.384341087504136 -8.398259613713495" fill="#ffe115" stroke="none" /><path d="M 80.73074385275274 108.34839909993369 l -11.29693697150259 4.894394351510701 a33.31161569438398,33.31161569438398 0 0,0 -0.22342420883109257,-0.5281088312323531 l 11.379512161525989 -4.699210994612188" fill="#ff6409" stroke="none" /><path d="M 80.58989483394504 108.01547362559985 l -23.296668180775203 9.62044397852729 a46.204914018284725,46.204914018284725 0 0,0 -0.2972458615396401,-0.7377398513856996 l 23.458816656572232 -9.218004759298784" fill="#e7ff1a" stroke="none" /><path d="M 80.45479744820244 107.68017299344265 l -48.719416787390486 19.144009793461077 a73.34572268175882,73.34572268175882 0 0,0 -0.45162007190950115,-1.1790374976644045 l 49.041731138893496 -18.30254872896351" fill="#3fffbb" stroke="none" /><path d="M 80.20201598880116 107.00284435728193 l -13.752789829285653 4.864568362032207 a35.587777535916416,35.587777535916416 0 0,0 -0.19930709259887477,-0.5792797046743692 l 13.834487752827757 -4.6271159542685405" fill="#ff860c" stroke="none" /><path d="M 80.0844068197444 106.66101706037122 l -20.226638850844054 6.7650501413641795 a42.32798215063126,42.32798215063126 0 0,0 -0.22516017167006647,-0.6929717535765204 l 20.34009127353037 -6.415879487809856" fill="#ffe415" stroke="none" /><path d="M 79.97269907076064 106.31721596034903 l -17.152790361059726 5.41050845624473 a38.98587831954723,38.98587831954723 0 0,0 -0.19636486554960902,-0.6417317422112083 l 17.243381999115467 -5.114449741481474" fill="#ffb610" stroke="none" /><path d="M 79.86692584326677 105.97154293290107 l -8.333269592735792 2.471678033720374 a29.69209838920331,29.69209838920331 0 0,0 -0.14111857359736854,-0.49125226771003416 l 8.374580803219265 -2.3278682905057435" fill="#ff2e04" stroke="none" /><path d="M 79.76711848015287 105.62410040840567 l -28.308802706596058 7.868950782292996 a50.38211525903351,50.38211525903351 0 0,0 -0.2250687214485937,-0.8375644401296967 l 28.440059504386426 -7.38049540898776" fill="#b3ff20" stroke="none" /><path d="M 79.67330655649465 105.27499134158121 l -36.567529033998724 9.48965947528445 a58.77880115367871,58.77880115367871 0 0,0 -0.24571970002825783,-0.9815280570567423 l 36.72546004832204 -8.858803578830315" fill="#51ff2b" stroke="none" /><path d="M 79.4281124754447 104.21870165774334 l -22.407303806472378 4.5950926768916975 a43.873612320417934,43.873612320417934 0 0,0 -0.14534714998719533,-0.7411219864100245 l 22.48308088943524 -4.208706963413718" fill="#fff917" stroke="none" /><path d="M 79.35854240842038 103.8639653848113 l -26.297751654618327 4.9227919899058366 a47.75454397039617,47.75454397039617 0 0,0 -0.1442950337805372,-0.8092831793500127 l 26.378593130738054 -4.469390059822611" fill="#d3ff1c" stroke="none" /><path d="M 79.29508885075956 103.50808413554451 l -22.788810429307922 3.861164327571586 a44.11359925990422,44.11359925990422 0 0,0 -0.12040543420889392,-0.7497647537547568 l 22.85189761787811 -3.4683203441236157" fill="#fffc17" stroke="none" /><path d="M 79.23777060512086 103.15116336523772 l -25.96888718813948 3.941397832905156 a47.266284828036575,47.266284828036575 0 0,0 -0.11516306276886759,-0.8054501927798562 l 26.03288430192495 -3.4938021681448994" fill="#daff1c" stroke="none" /><path d="M 79.07016306316243 101.71520430193888 l -35.38658420392753 2.899937617319525 a56.50521060078363,56.50521060078363 0 0,0 -0.07109819606996108,-0.9700783975947863 l 35.43125895866182 -2.290386083227978" fill="#6bff28" stroke="none" /><path d="M 79.0235259727143 100.99374915477108 l -23.3873530622023 1.1079632500516903 a44.41358293426208,44.41358293426208 0 0,0 -0.02960454445314158,-0.7639617474993485 l 23.402959739506645 -0.705224255538345" fill="#feff18" stroke="none" /><path d="M 79.0095281055655 100.63252640178507 l -23.93583169960425 0.7212818070420854 a44.94669677840661,44.94669677840661 0 0,0 -0.016647266193258285,-0.7735330458242455 l 23.944701028482516 -0.30915894542771105" fill="#f7ff18" stroke="none" /><line stroke="#e1ed5e" stroke-width="0.3" x1="15.007084014347285" x2="10.007500721073583" y1="101.09737516637583" y2="101.16192664675087" /><path d="M 14.007167355692545 101.11028546245083 a86.0,86.0 0 0,1 10.666146001902534,-42.60595125391555" fill="none" id="id10" stroke="none" /><text fill="#e1ed5e" style="font-size:6.75px; font-family:Arial;" text-anchor="middle"><textPath startOffset="22.20632615414155" xlink:href="#id10">October</textPath></text><path d="M 79.00175016825051 100.2711162175752 l -42.236180927223934 0.545327049138023 a63.23970124074881,63.23970124074881 0 0,0 -0.004684865458631075,-1.0885977428458078 l 42.239310089972065 0.18178017191146015" fill="#31ff40" stroke="none" /><path d="M 79.12142395522702 97.74499172005258 l -39.87591012795843 -4.306831429315672 a61.10781726164562,61.10781726164562 0 0,0 0.12195271667413161,-1.0448164011949506 l 39.795867058280706 4.992591568835484" fill="#38ff2e" stroke="none" /><path d="M 79.21141760316559 97.0276538004421 l -27.213177489978875 -3.890933164473518 a48.48993252067915,48.48993252067915 0 0,0 0.12525205079870308,-0.8252545201399185 l 27.14216954574087 4.3587867970055285" fill="#caff1d" stroke="none" /><path d="M 79.26566170972629 96.67025291283419 l -27.834969051086325 -4.470044127845744 a49.19160861993905,49.19160861993905 0 0,0 0.14145665111351763,-0.8348851622739 l 27.753900538452587 4.948515078435473" fill="#c1ff1e" stroke="none" /><path d="M 79.3925641242962 95.95851677861259 l -25.433799183826363 -4.988018561725137 a46.91830376578145,46.91830376578145 0 0,0 0.16224953590215288,-0.791186358808739 l 25.344170352009215 5.425080576697279" fill="#deff1b" stroke="none" /><path d="M 79.46518482838121 95.60439243477599 l -26.709731091001288 -5.717387522969795 a48.31479919460166,48.31479919460166 0 0,0 0.18107837559450402,-0.811738851888834 l 26.607358328404747 6.1763045444085884" fill="#ccff1d" stroke="none" /><path d="M 79.62865764111835 94.90015583598534 l -46.55166566903341 -11.65393209269173 a68.9882455376578,68.9882455376578 0 0,0 0.2983040834595823,-1.1494873194637671 l 46.34416525370352 12.45351583770436" fill="#39ff88" stroke="none" /><path d="M 79.81627453868168 94.20196356495316 l -25.191488321000268 -7.236581146436012 a47.21028787548977,47.21028787548977 0 0,0 0.23109234234566806,-0.7791284962324244 l 25.063190081542892 7.669139029414976" fill="#daff1b" stroke="none" /><path d="M 79.91906864156998 93.8553929516997 l -11.757223578871827 -3.5976179382163154 a33.29533086634741,33.29533086634741 0 0,0 0.1724135546589781,-0.5465980845214636 l 11.693554540444644 3.7994661891641934" fill="#ff6409" stroke="none" /><path d="M 80.02781315780177 93.51064311812611 l -28.932553699718515 -9.400756559354782 a51.42148726599913,51.42148726599913 0 0,0 0.2807679470571336,-0.8394604248819908 l 28.766448458889606 9.897390087159096" fill="#a6ff21" stroke="none" /><path d="M 80.2630227832202 92.82701384747504 l -26.796523200758337 -9.738628552068299 a49.51130550718328,49.51130550718328 0 0,0 0.29800008730486016,-0.7984920776549869 l 26.62491852495185 10.198443766752627" fill="#bdff1f" stroke="none" /><path d="M 80.52162464483688 92.15188598940014 l -41.20048444090101 -16.600260200778358 a65.41901121027428,65.41901121027428 0 0,0 0.4298288005888705,-1.0408645343405971 l 40.908633953425934 17.306999305572266" fill="#34ff5c" stroke="none" /><path d="M 80.65960295795067 91.81776055985345 l -28.080202061486514 -11.879742504522735 a51.48976926425773,51.48976926425773 0 0,0 0.352359913872893,-0.8132952623806151 l 27.871551437770943 12.36133691148995" fill="#a5ff21" stroke="none" /><path d="M 80.803312248108 91.48605970444005 l -27.96086994031702 -12.400950641097609 a51.587478232477146,51.587478232477146 0 0,0 0.3670023676969342,-0.8086410692128676 l 27.743265255656734 12.880413719152548" fill="#a4ff21" stroke="none" /><path d="M 80.95270993114464 91.15688171328213 l -13.917499115940403 -6.461501373300003 a36.34430779277318,36.34430779277318 0 0,0 0.26832795827442185,-0.5651671122869043 l 13.80421296382423 6.700110901227439" fill="#ff910d" stroke="none" /><path d="M 81.10775173730289 90.83032412892265 l -39.85661920570909 -19.3450919314318 a65.30330322159338,65.30330322159338 0 0,0 0.49953913255314847,-1.00704040893609 l 39.51772006020253 20.028291928866853" fill="#34ff5a" stroke="none" /><path d="M 81.43458229118936 90.18545643968196 l -26.476128454347602 -13.996513307667316 a50.94808445798868,50.94808445798868 0 0,0 0.41654159341761476,-0.771788310898547 l 26.231278761711515 14.450182601898335" fill="#acff21" stroke="none" /><path d="M 81.6062741919709 89.86733742301443 l -26.271817828713328 -14.472514602027198 a50.99436765346104,50.99436765346104 0 0,0 0.43015536033024127,-0.7651983880025618 l 26.018804827090655 14.922596499964545" fill="#abff21" stroke="none" /><line stroke="#e1ed5e" stroke-width="0.3" x1="26.266209847984243" x2="21.928928074336255" y1="57.711370442889674" y2="55.22380399835377" /><path d="M 25.398753493254645 57.213857153982495 a86.0,86.0 0 0,1 29.58750427330803,-30.492523968695096" fill="none" id="id11" stroke="none" /><text fill="#e1ed5e" style="font-size:6.75px; font-family:Arial;" text-anchor="middle"><textPath startOffset="21.46611528233685" xlink:href="#id11">November</textPath></text><path d="M 81.78341655067845 89.55222093294921 l -24.95337856119175 -14.311541289237903 a49.76614878101873,49.76614878101873 0 0,0 0.4325870951831198,-0.7394315708351007 l 24.703331791538307 14.738952272426895" fill="#baff1f" stroke="none" /><path d="M 82.15384107792192 88.93136811851018 l -25.788602827415755 -15.994733246574393 a51.34606279930344,51.34606279930344 0 0,0 0.47231630353558096,-0.747090965187656 l 25.50945892763421 16.436271859476264" fill="#a7ff21" stroke="none" /><path d="M 82.34701348167596 88.62581576622439 l -12.349933687034415 -7.957317640583411 a35.69148617762299,35.69148617762299 0 0,0 0.33720528317698495,-0.5135867806032597 l 12.21113176849951 8.168722485164338" fill="#ff870c" stroke="none" /><path d="M 82.54541684631803 88.32363383020206 l -27.869296746876675 -18.64336208124491 a54.530175228558996,54.530175228558996 0 0,0 0.5286195028252912,-0.7756838921755119 l 27.544252778382642 19.120323996690836" fill="#81ff25" stroke="none" /><path d="M 82.7489923806493 88.02491185347247 l -23.489195779482692 -16.30543537844281 a49.59387244231606,49.59387244231606 0 0,0 0.4928388244651228,-0.6970855662332104 l 23.205044335213692 16.70734744500781" fill="#bcff1f" stroke="none" /><path d="M 82.95767976084542 87.72973835380427 l -21.05411914939201 -15.158707679937097 a46.94344525468002,46.94344525468002 0 0,0 0.47778901658783723,-0.6517036816757139 l 20.790067520290542 15.518873805284313" fill="#deff1b" stroke="none" /><path d="M 83.39014120810768 87.1503855733568 l -22.667494901957866 -17.5358847511837 a49.658726055724856,49.658726055724856 0 0,0 0.5288557831078434,-0.6715931384013253 l 22.36228503825605 17.923470283538073" fill="#bcff1f" stroke="none" /><path d="M 83.6137871275137 86.86637796730984 l -12.65437238101072 -10.142535386694929 a37.21740313452329,37.21740313452329 0 0,0 0.40496346367806507,-0.49643732305036925 l 12.477910425256262 10.35885687935338" fill="#ff9d0e" stroke="none" /><path d="M 83.84228863543731 86.58626213691792 l -19.967426423052512 -16.576470379748862 a46.95144481932956,46.95144481932956 0 0,0 0.5215844646568826,-0.6173914899447748 l 19.679131344908505 16.917720819322753" fill="#deff1b" stroke="none" /><path d="M 84.07557802195018 86.31012108654704 l -41.193262882379074 -35.412951357802925 a75.32275794514584,75.32275794514584 0 0,0 0.8536871070810161,-0.9759119381316834 l 40.57758391172021 36.11677885213755" fill="#41ffd1" stroke="none" /><path d="M 84.31358615837235 86.03803664274999 l -19.44625329338261 -17.308473348924363 a47.03344035698738,47.03344035698738 0 0,0 0.5434744479204259,-0.6001180594656355 l 19.14543520484614 17.640644195659554" fill="#dcff1b" stroke="none" /><path d="M 84.5562425177563 85.77008943001954 l -10.662126104619325 -9.82410537908452 a35.49806813234654,35.49806813234654 0 0,0 0.4179182118683413,-0.445806009916498 l 10.491440570780526 10.006180805879069" fill="#ff840c" stroke="none" /><path d="M 84.80347519578584 85.50635884689758 l -20.70667090622107 -19.748926906428565 a49.61444275141489,49.61444275141489 0 0,0 0.5947489655708162,-0.6129410889307456 l 20.363657676947142 20.102432190909436" fill="#bcff1f" stroke="none" /><path d="M 85.05521093208273 85.24692304244772 l -21.35260323128907 -21.078691528109236 a51.00408141053548,51.00408141053548 0 0,0 0.6221628429871865,-0.6194910780166991 l 20.98660458813457 21.443118456776045" fill="#abff21" stroke="none" /><path d="M 85.31137513191541 84.99185889309783 l -20.904872334501484 -21.359608311576835 a50.88723062690466,50.88723062690466 0 0,0 0.6312845840222636,-0.6072952696633019 l 20.534104506866793 21.716286668002446" fill="#adff20" stroke="none" /><path d="M 85.57189188830299 84.74124197986013 l -17.758562377194995 -18.780952014041063 a46.847450478885506,46.847450478885506 0 0,0 0.5907064548152273,-0.5489972722356511 l 17.43264803858491 19.083853872351362" fill="#dfff1b" stroke="none" /><path d="M 85.83668400450813 84.49514656593479 l -17.38524686674541 -19.03196290118272 a46.77716858946452,46.77716858946452 0 0,0 0.5991687800922291,-0.5379396467296305 l 17.055067099057208 19.328401556681627" fill="#e0ff1b" stroke="none" /><path d="M 86.37877921826538 84.01681056812374 l -19.160957041654815 -22.483535873927146 a50.54067805833695,50.54067805833695 0 0,0 0.6669984762306738,-0.5585920419939023 l 18.771101028465033 22.81002907331486" fill="#b1ff20" stroke="none" /><path d="M 86.65592168130627 83.78471172551755 l -16.404516829475984 -19.934233226202423 a46.81630931649978,46.81630931649978 0 0,0 0.6266621638391049,-0.5067172217255521 l 16.058951267072377 20.213656545192112" fill="#dfff1b" stroke="none" /><path d="M 86.93701828274178 83.55741782278169 l -18.350624499060363 -23.09822197258695 a50.50039453635176,50.50039453635176 0 0,0 0.6852842092602411,-0.5348751951256328 l 17.950307734640695 23.4106755569358" fill="#b1ff20" stroke="none" /><path d="M 87.22198572758235 83.33499621200491 l -16.06239367556288 -20.94847021929939 a47.39770624727906,47.39770624727906 0 0,0 0.6517271419967532,-0.4908673716313297 l 15.699420379807739 21.221854180436576" fill="#d8ff1c" stroke="none" /><path d="M 87.51073957382395 83.11751280151077 l -16.29921208236 -22.03262882958039 a48.40622279059643,48.40622279059643 0 0,0 0.6741250748920115,-0.4897805361038467 l 15.917541691114208 22.309928600500903" fill="#cbff1d" stroke="none" /><path d="M 87.80319425747018 82.90503203632743 l -36.59041722758948 -51.284903891017706 a84.0,84.0 0 0,0 1.184275441665359,-0.8296606289442297 l 35.70221064634046 51.907149362725875" fill="#4dd2ff" stroke="none" /><path d="M 88.39885842347998 82.49532879139004 l -14.235009809935434 -21.478848846960023 a46.76774053112756,46.76774053112756 0 0,0 0.6748651195474441,-0.43895104634823623 l 13.863177664603704 21.720698817467795" fill="#e0ff1b" stroke="none" /><path d="M 88.70189139769569 82.29822771554957 l -15.416852046298468 -24.15498149937932 a49.655583369612536,49.655583369612536 0 0,0 0.7244533201063181,-0.4536526025891031 l 14.998779573819906 24.416778443291353" fill="#bcff1f" stroke="none" /><path d="M 89.00827224532344 82.1063720568725 l -15.504221996148036 -25.23959709870835 a50.621245102307356,50.621245102307356 0 0,0 0.7463932256651673,-0.449693567012462 l 15.067466704265222 25.50273727517943" fill="#b0ff20" stroke="none" /><line stroke="#e1ed5e" stroke-width="0.3" x1="56.76296977257108" x2="54.21961505331056" y1="26.818313649435495" y2="22.513508569990535" /><path d="M 56.25429882871898 25.957352633546506 a86.0,86.0 0 0,1 42.26535254187918,-11.944610805530505" fill="none" id="id12" stroke="none" /><text fill="#e1ed5e" style="font-size:6.75px; font-family:Arial;" text-anchor="middle"><textPath startOffset="22.20632615414155" xlink:href="#id12">December</textPath></text><path d="M 89.3179101791058 81.91981866633112 l -15.056857859074144 -25.4847810654853 a50.600389094471055,50.600389094471055 0 0,0 0.7537127165369814,-0.43659905420781664 l 14.615948410071839 25.740184277083166" fill="#b0ff20" stroke="none" /><path d="M 89.63071344664047 81.73862282372117 l -18.306931395788244 -32.24038389125599 a58.07541086199391,58.07541086199391 0 0,0 0.8735534908832164,-0.48613157190021605 l 17.749253815832983 32.55073086071639" fill="#59ff2a" stroke="none" /><path d="M 89.94658935756843 81.56283822128135 l -29.490041024106933 -54.08240810613143 a82.60007618633,82.60007618633 0 0,0 1.2541639737690804,-0.6699309603384878 l 28.554732003809544 54.58201779297167" fill="#4be0ff" stroke="none" /><path d="M 90.58718382345135 81.22770947309562 l -14.32936835692293 -28.577533101450538 a52.96883162821071,52.96883162821071 0 0,0 0.8185670388686331,-0.4016672909752183 l 13.83533005104387 28.819955552560586" fill="#94ff23" stroke="none" /><path d="M 90.91171255644093 81.06846463323043 l -13.887383939454546 -28.92838742551185 a53.08911079669133,53.08911079669133 0 0,0 0.8272339902574574,-0.38839745042267776 l 13.38737173789748 29.163149858574535" fill="#92ff23" stroke="none" /><path d="M 91.23893434514133 80.91482961587045 l -12.04300871654965 -26.234579484681998 a49.86671473661297,49.86671473661297 0 0,0 0.7831873434976844,-0.35139333166431064 l 11.58963925458519 26.437993146862837" fill="#b9ff1f" stroke="none" /><path d="M 91.56875222667455 80.76684994638697 l -11.661788455301094 -26.602578086236512 a50.0464192424902,50.0464192424902 0 0,0 0.7919637132721501,-0.33907753112351463 l 11.202140984238635 26.799375145322816" fill="#b7ff1f" stroke="none" /><path d="M 91.90106846888425 80.62456947434976 l -11.146718659465137 -26.666785877331925 a49.90271277753591,49.90271277753591 0 0,0 0.7953925199018715,-0.3244605799847735 l 10.686042269974884 26.854707343500277" fill="#b9ff1f" stroke="none" /><path d="M 92.23578459929587 80.48803036053334 l -22.54869527335807 -56.66631267641637 a81.98782379190249,81.98782379190249 0 0,0 1.315775089662434,-0.5105002929965278 l 21.569937018695956 57.04605567330345" fill="#4ae6ff" stroke="none" /><path d="M 92.91201910852362 80.23233633223022 l -8.206856629991302 -22.888095229822643 a45.31496245102308,45.31496245102308 0 0,0 0.7365148652252702,-0.25695557462862745 l 7.811659760702746 23.02597165762348" fill="#f3ff19" stroke="none" /><path d="M 93.25333710446033 80.11325718540243 l -9.455553051668074 -27.87157956752556 a50.431826839355686,50.431826839355686 0 0,0 0.8244815456974813,-0.27181860279761344 l 8.974388683728183 28.030211894582408" fill="#b2ff20" stroke="none" /><path d="M 93.59665428221793 80.00007090966166 l -8.726544776361372 -27.256107107604656 a49.61901393121463,49.61901393121463 0 0,0 0.8156766381297818,-0.253434701977342 l 8.256082765520862 27.402281944464523" fill="#bcff1f" stroke="none" /><path d="M 93.94186890950719 79.89281104454417 l -8.498147564889294 -28.205705077384817 a50.458111123204176,50.458111123204176 0 0,0 0.8337837216643093,-0.24340433220888444 l 8.011373625501564 28.3478077385124" fill="#b2ff20" stroke="none" /><path d="M 94.28887869178378 79.79150937346287 l -7.786126827061766 -27.55078425235748 a49.629870483239,49.629870483239 0 0,0 0.824097171193272,-0.22525688733811525 l 7.310731766644772 27.680727680521894" fill="#bcff1f" stroke="none" /><path d="M 94.63758080256005 79.69619591428918 l -15.504427175358217 -58.70463315884198 a81.71755278624292,81.71755278624292 0 0,0 1.3630920180683455,-0.3474825059154409 l 14.491626268604872 58.96281866092628" fill="#4ae9ff" stroke="none" /><path d="M 95.33964822691252 79.52364482259891 l -6.991985921641198 -30.720939984335747 a52.506571070962124,52.506571070962124 0 0,0 0.8830036954028823,-0.19299040704515472 l 6.462139502084794 30.836743889476768" fill="#99ff23" stroke="none" /><path d="M 95.692805502759 79.44645832069477 l -6.297889037133683 -30.05295556058185 a51.70575750979539,51.70575750979539 0 0,0 0.8726789183532551,-0.17505118128464323 l 5.779643709313292 30.1569106979437" fill="#a3ff22" stroke="none" /><path d="M 96.04723909329186 79.375362276772 l -7.269135051199474 -37.92874917827088 a59.619041140618194,59.619041140618194 0 0,0 1.0095629478462456,-0.18449117575493945 l 6.615176982250335 38.04825583537656" fill="#48ff2c" stroke="none" /><path d="M 96.40284397218896 79.31037775812273 l -5.0158754613961705 -28.84961555913922 a50.28240639965172,50.28240639965172 0 0,0 0.8540126575148074,-0.14091940595275804 l 4.518533597742477 28.931681228031607" fill="#b4ff20" stroke="none" /><path d="M 97.47563105711357 79.15227682838746 l -7.383840975858789 -60.98010080566863 a82.42551425772746,82.42551425772746 0 0,0 1.4099994857957225,-0.15842987108136947 l 6.3330747865533485 61.0981666302206" fill="#4be2ff" stroke="none" /><path d="M 98.55514903715128 79.0497635885617 l -1.0469783526639516 -15.181111803200345 a36.21717185459295,36.21717185459295 0 0,0 0.622310956611171,-0.03753949636028919 l 0.7855053472131576 15.196884568940941" fill="#ff8f0d" stroke="none" /><path d="M 99.27714615592234 79.0124445844662 l -1.0266522897574497 -29.808130648128895 a50.825805398345665,50.825805398345665 0 0,0 0.8746234436062121,-0.022588943157844737 l 0.5134022109563585 29.8213863834291" fill="#adff20" stroke="none" /></svg>